PathFileType	4	(x/y/z)	S04_PSF_T12.trc
DataRate	CameraRate	NumFrames	NumMarkers	Units	OrigDataRate	OrigDataStartFrame	OrigNumFrames
240	240	5	51	mm	240	267	426
Frame#	Time	Sternum			R.Acromium			L.Acromium			Top.Head			R.ASIS			L.ASIS			R.PSIS			L.PSIS			R.Great.Tro			L.Great.Tro			R.Iliac.Crest			L.Iliac.Crest			V.Sacral			R.Thigh.Upper.Post			R.Thigh.Lower.Ant			R.Thigh.Lower.Post			R.Thigh.Upper.Ant			R.Knee.Lat			R.Knee.Med			R.Shank.Upper.Post			R.Shank.Lower.Ant			R.Shank.Lower.Post			R.Shank.Upper.Ant			R.Ankle.Lat			R.Ankle.Med			R.Heel.Upper			R.Heel.Med			R.Heel.Lat			R.Toe.Lat			R.Toe.Med			R.Toe.Tip			L.Thigh.Upper.Post			L.Thigh.Lower.Ant			L.Thigh.Lower.Post			L.Thigh.Upper.Ant			L.Knee.Lat			L.Knee.Med			L.Shank.Upper.Post			L.Shank.Lower.Ant			L.Shank.Lower.Post			L.Shank.Upper.Ant			L.Ankle.Lat			L.Ankle.Med			L.Heel.Upper			L.Heel.Med			L.Heel.Lat			L.Toe.Lat			L.Toe.Med			L.Toe.Tip			Cervical.Spine			Back			
		X1	Y1	Z1	X2	Y2	Z2	X3	Y3	Z3	X4	Y4	Z4	X5	Y5	Z5	X6	Y6	Z6	X7	Y7	Z7	X8	Y8	Z8	X9	Y9	Z9	X10	Y10	Z10	X11	Y11	Z11	X12	Y12	Z12	X13	Y13	Z13	X14	Y14	Z14	X15	Y15	Z15	X16	Y16	Z16	X17	Y17	Z17	X18	Y18	Z18	X19	Y19	Z19	X20	Y20	Z20	X21	Y21	Z21	X22	Y22	Z22	X23	Y23	Z23	X24	Y24	Z24	X25	Y25	Z25	X26	Y26	Z26	X27	Y27	Z27	X28	Y28	Z28	X29	Y29	Z29	X30	Y30	Z30	X31	Y31	Z31	X32	Y32	Z32	X33	Y33	Z33	X34	Y34	Z34	X35	Y35	Z35	X36	Y36	Z36	X37	Y37	Z37	X38	Y38	Z38	X39	Y39	Z39	X40	Y40	Z40	X41	Y41	Z41	X42	Y42	Z42	X43	Y43	Z43	X44	Y44	Z44	X45	Y45	Z45	X46	Y46	Z46	X47	Y47	Z47	X48	Y48	Z48	X49	Y49	Z49	X50	Y50	Z50	X51	Y51	Z51	

267	1.1083	-26.638	1255.7	246.13	-133.72	1483.2	433.48	-174.75	1468.2	85.836	-140.11	1809.3	243.55	-63.264	969.67	396.73	-53.65	988.18	147.05	-269.65	1010	283.26	-259.13	1010.6	203.16	-168.15	897.9	452.17	-157.63	900.29	73.387	-147.17	1063.6	433.68	-161.18	1068.8	96.895	-285.46	968.75	243.56	-236.57	655.33	434.23	-185.1	557.42	397.41	-259.19	568.17	419.24	-147.77	659.92	420.37	-263.19	493.74	406.58	-283.75	499.39	279.27	-408.04	303.17	395.13	-367.28	209.13	351.49	-429.78	237.52	374.73	-348.1	274.7	378.67	-454.35	125.6	351.49	-434.18	136.08	263.1	-526.52	104.86	295.4	-522.02	72.988	266.26	-527.26	73.495	330.4	-363.46	40.092	383.23	-324.01	36.218	264.65	-260.02	43.29	314.04	-94.201	663.29	84.577	17.127	604.31	85.709	-52.017	585.33	99.315	-29.957	679.79	67.627	25.072	516.53	103.19	38.219	508.52	229.32	22.474	318.55	108.27	122.96	271.33	102.53	62.118	251.48	113.81	83.821	337.16	96.023	179.76	120.93	120.34	183.53	137.9	211.86	129.82	58.764	168.23	149.96	43.298	204.99	148.67	35.441	143.06	311.59	116.52	100.21	334.12	147.4	212.5	376.21	183.52	162.34	-204.1	1529.5	270.01	-285.7	1271.9	258.47
268	1.1125	-20.955	1255.1	245.49	-128.03	1482.5	432.88	-169.44	1467.5	85.278	-134.56	1808.7	242.83	-57.504	969.06	396.38	-47.649	987.65	146.64	-263.77	1009.4	282.62	-253.22	1010	202.52	-162.56	897.33	451.72	-151.5	899.76	72.927	-141.43	1063	433.22	-155.34	1068.2	96.439	-279.57	968.17	242.89	-231.31	654.93	433.91	-179.96	556.91	397.3	-254.05	567.81	418.96	-142.44	659.37	420.22	-258.3	493.3	406.38	-278.54	498.92	279.07	-405.02	304.05	395.16	-365.23	209.57	351.52	-427.44	238.6	374.75	-345.36	274.95	378.66	-453.29	126.93	351.73	-432.88	137.23	263.3	-525.58	106.82	295.61	-521.4	75.01	266.39	-526.63	75.394	330.55	-363.19	40.223	383.28	-323.87	36.283	264.71	-259.8	43.067	314.03	-87.718	662.96	84.372	23.612	604.07	86.066	-45.563	585.01	99.305	-23.477	679.5	67.788	31.417	516.11	103.36	44.078	508.14	229.48	27.657	318.1	108.38	127.84	270.28	102.99	66.859	250.81	114.05	89.145	336.32	96.37	183.51	119.81	120.88	187.34	136.72	212.44	133.27	58.3	168.75	153.24	42.619	205.46	151.84	34.846	143.53	315.15	114.87	100.77	337.85	145.46	213.07	380.09	181.45	162.91	-198.58	1528.8	269.46	-280.04	1271.2	258.09
269	1.1167	-15.249	1254.5	244.83	-122.33	1482	432.26	-164.12	1466.8	84.704	-129	1808.2	242.1	-51.709	968.48	396.03	-41.598	987.15	146.22	-257.85	1008.8	281.97	-247.26	1009.5	201.87	-156.93	896.77	451.25	-145.3	899.29	72.447	-135.64	1062.4	432.75	-149.46	1067.5	95.972	-273.64	967.62	242.21	-225.94	654.52	433.57	-174.68	556.39	397.19	-248.78	567.42	418.67	-137.01	658.84	420.05	-253.27	492.84	406.18	-273.18	498.43	278.87	-401.89	304.97	395.18	-363.1	210.04	351.57	-425	239.74	374.78	-342.53	275.24	378.66	-452.16	128.33	351.97	-431.5	138.43	263.52	-524.55	108.88	295.82	-520.71	77.147	266.52	-525.95	77.399	330.7	-362.9	40.367	383.33	-323.72	36.353	264.78	-259.59	42.852	314.01	-81.172	662.68	84.153	30.169	603.9	86.429	-39.043	584.74	99.274	-16.918	679.27	67.962	37.809	515.73	103.53	49.974	507.8	229.62	32.718	317.7	108.48	132.54	269.19	103.45	71.411	250.15	114.28	94.362	335.48	96.725	186.93	118.61	121.42	190.81	135.45	213.02	136.3	57.896	169.26	156.05	41.955	205.9	154.54	34.276	143.97	318.35	112.96	101.37	341.24	143.21	213.68	383.71	179	163.56	-193.06	1528.2	268.88	-274.36	1270.5	257.69
270	1.1208	-9.5188	1254.1	244.16	-116.64	1481.4	431.63	-158.8	1466.1	84.115	-123.45	1807.7	241.37	-45.877	967.93	395.67	-35.498	986.71	145.78	-251.89	1008.3	281.32	-241.27	1009	201.21	-151.24	896.22	450.77	-139.03	898.89	71.948	-129.82	1061.8	432.27	-143.51	1066.9	95.495	-267.69	967.12	241.51	-220.47	654.1	433.21	-169.26	555.87	397.08	-243.38	567.02	418.36	-131.48	658.32	419.88	-248.09	492.37	405.98	-267.67	497.91	278.68	-398.66	305.93	395.22	-360.88	210.55	351.62	-422.47	240.94	374.82	-339.61	275.57	378.67	-450.94	129.79	352.21	-430.02	139.69	263.75	-523.43	111.06	296.04	-519.94	79.408	266.65	-525.2	79.517	330.86	-362.59	40.526	383.39	-323.58	36.431	264.85	-259.37	42.645	313.98	-74.575	662.45	83.922	36.779	603.77	86.791	-32.474	584.52	99.222	-10.295	679.1	68.144	44.23	515.38	103.69	55.889	507.49	229.74	37.671	317.35	108.56	137.1	268.05	103.92	75.798	249.51	114.49	99.485	334.62	97.084	190.07	117.37	121.95	193.99	134.12	213.6	138.96	57.563	169.74	158.43	41.321	206.31	156.81	33.746	144.38	321.24	110.83	102.01	344.33	140.67	214.35	387.09	176.22	164.26	-187.54	1527.6	268.29	-268.66	1269.8	257.27
271	1.125	-3.7652	1253.6	243.48	-110.95	1480.9	430.99	-153.46	1465.5	83.508	-117.9	1807.2	240.63	-40.009	967.41	395.3	-29.35	986.31	145.33	-245.89	1007.7	280.65	-235.23	1008.6	200.54	-145.5	895.68	450.27	-132.7	898.54	71.428	-123.96	1061.3	431.78	-137.51	1066.4	95.007	-261.7	966.65	240.8	-214.89	653.66	432.85	-163.7	555.35	396.97	-237.84	566.59	418.04	-125.85	657.82	419.7	-242.76	491.89	405.79	-262	497.37	278.49	-395.31	306.95	395.25	-358.56	211.11	351.69	-419.83	242.19	374.86	-336.59	275.95	378.7	-449.64	131.33	352.46	-428.43	141.02	263.99	-522.21	113.35	296.26	-519.1	81.797	266.77	-524.38	81.755	331.01	-362.27	40.701	383.44	-323.42	36.515	264.91	-259.16	42.446	313.95	-67.943	662.27	83.675	43.424	603.69	87.148	-25.876	584.35	99.148	-3.6251	678.97	68.329	50.664	515.06	103.84	61.804	507.21	229.83	42.532	317.04	108.61	141.53	266.9	104.39	80.046	248.88	114.68	104.53	333.77	97.442	192.96	116.09	122.46	196.92	132.73	214.17	141.3	57.314	170.19	160.44	40.736	206.69	158.71	33.272	144.75	323.87	108.5	102.68	347.16	137.89	215.05	390.27	173.13	165.03	-182.01	1527.1	267.69	-262.94	1269.2	256.83
